<?xml version="1.0" encoding="UTF-8" standalone="no"?><svg xmlns="http://www.w3.org/2000/svg" xmlns:xlink="http://www.w3.org/1999/xlink" fill="#efedec" height="55.8" preserveAspectRatio="xMidYMid meet" version="1" viewBox="16.0 4.2 32.0 55.8" width="32" zoomAndPan="magnify"><g id="change1_1"><path d="M44.457,52.828a1,1,0,0,1-.558,1.3A33.936,33.936,0,0,1,32,56a1,1,0,0,1,0-2,31.906,31.906,0,0,0,11.157-1.729A1,1,0,0,1,44.457,52.828ZM48,21V53.54a.978.978,0,0,1-.046.23A.978.978,0,0,1,48,54c0,3.939-8.049,6-16,6s-16-2.061-16-6c0-.034.016-.063.019-.1s-.019-.062-.019-.1V21c0-3.359,5.881-5.163,11.294-5.752a10.647,10.647,0,0,1-.075-1.174c-.049-5.378,3.9-9.414,4.072-9.583l0,0v0a.957.957,0,0,1,.158-.1,1,1,0,0,1,.168-.111,1,1,0,0,1,.291-.058c.028,0,.055-.016.084-.016a1.013,1.013,0,0,1,.286.055.876.876,0,0,1,.089.018.982.982,0,0,1,.239.156c.029.023.064.034.091.06v0l.005,0c.168.169,4.121,4.205,4.072,9.583a10.6,10.6,0,0,1-.075,1.172C42.13,15.838,48,17.64,48,21Zm-2,3.056c-2.7,1.824-7.8,2.815-13,2.928v7c7.964-.177,13-2.417,13-3.983ZM31,33.983v-7c-5.2-.113-10.3-1.1-13-2.928V30C18,31.566,23.036,33.806,31,33.983Zm5.267-16.768a13.172,13.172,0,0,1-3.285,5.2.9.9,0,0,1,.018.09v2.474c7.964-.177,13-2.417,13-3.983C46,19.835,42.894,17.88,36.267,17.215Zm-7.048-3.144A9.736,9.736,0,0,0,32,20.555a9.736,9.736,0,0,0,2.781-6.484A12.3,12.3,0,0,0,32,6.738,12.3,12.3,0,0,0,29.219,14.071ZM18,21c0,1.566,5.036,3.806,13,3.983V22.509a.9.9,0,0,1,.018-.09,13.164,13.164,0,0,1-3.285-5.205C21.106,17.881,18,19.838,18,21ZM46,54a.978.978,0,0,1,.046-.23A.978.978,0,0,1,46,53.54V33.056C43.121,35,37.541,36,32,36s-11.121-1-14-2.944V53.808c0,.034-.016.063-.019.1s.019.062.019.1c0,1.631,5.454,4,14,4S46,55.631,46,54Z" fill="inherit"/></g></svg>